PathFileType	4	(X/Y/Z)	Patient4_TMGait_0pt2_01_left_09.trc.trc
DataRate	CameraRate	NumFrames	NumMarkers	Units	OrigDataRate	OrigDataStartFrame	OrigNumFrames
42.296072507553	42.296072507553	6	33	mm	42.296072507553	106	       141
Frame#	Time	Sacral			L.Shoulder			Chest			R.Shoulder			Neck			R.ASIS			L.ASIS			R.Thigh.Superior			R.Thigh.Lateral			R.Thigh.Inferior			R.Patella			L.Thigh.Superior			L.Thigh.Lateral			L.Thigh.Inferior			L.Patella			L.Shank.Superior			L.Shank.Lateral			L.Shank.Inferior			R.Shank.Superior			R.Shank.Lateral			R.Shank.Inferior			R.Heel			R.Midfoot.Superior			R.Midfoot.Lateral			R.Toe			L.Heel			L.Midfoot.Lateral			L.Midfoot.Superior			L.Toe			L.Elbow			L.Wrist			R.Elbow			R.Wrist			
		X1	Y1	Z1	X2	Y2	Z2	X3	Y3	Z3	X4	Y4	Z4	X5	Y5	Z5	X6	Y6	Z6	X7	Y7	Z7	X8	Y8	Z8	X9	Y9	Z9	X10	Y10	Z10	X11	Y11	Z11	X12	Y12	Z12	X13	Y13	Z13	X14	Y14	Z14	X15	Y15	Z15	X16	Y16	Z16	X17	Y17	Z17	X18	Y18	Z18	X19	Y19	Z19	X20	Y20	Z20	X21	Y21	Z21	X22	Y22	Z22	X23	Y23	Z23	X24	Y24	Z24	X25	Y25	Z25	X26	Y26	Z26	X27	Y27	Z27	X28	Y28	Z28	X29	Y29	Z29	X30	Y30	Z30	X31	Y31	Z31	X32	Y32	Z32	X33	Y33	Z33	

106	22.342500000000	783.824903735201	982.777514279268	592.957404999108	928.790120655574	1410.870354840005	386.465315316230	1047.015842050344	1352.878337385181	540.691636434183	976.063649776390	1426.092015291000	719.961210580004	923.055635017585	1478.728394721873	542.889660392740	1024.773853964135	930.260437212383	693.345476591453	989.027071483610	947.487357210201	421.370618807161	1072.626179976342	731.962686364201	643.200545033006	1003.587443223530	610.862778239638	697.808042848188	1073.223388043066	570.095359343385	605.679164269990	1076.736025251325	474.151037946923	604.354367109861	1078.208679818540	762.737485340064	448.209812141691	1031.873373390612	634.826321195576	368.231499642840	1132.893249769976	571.552486709154	431.036390106924	1145.813201384634	485.116255454829	417.528051094347	1085.265116132065	418.422033919284	401.063537558298	949.142946462110	363.044055508831	351.949243103181	959.359455233396	227.720324727778	389.809126841829	1032.028917558779	385.749783835409	606.449078259329	949.982042601268	288.408063623755	667.238866047102	968.143244316663	195.586173254844	594.794161438606	808.798815055299	43.449155676590	565.474706487664	982.418446158772	96.179329368676	596.177239117146	894.238714132565	37.177078304046	637.424556934449	1102.355621425261	42.414847160355	620.091657436015	784.757149092111	122.897619561940	426.255894768631	843.395612071822	106.324006460908	336.398161385786	945.476845444839	133.376217626519	354.785786616352	1041.823432988019	48.223555689584	301.778161265901	880.877102778538	1051.389802609183	295.657099739744	941.334806799085	800.091184867779	308.714840169963	1071.170926643712	1093.916419351514	852.881733390120	1276.333046145098	933.261056362440	847.606150217085	
107	22.366142857143	782.319421650475	982.821611101715	597.025462825431	923.619267544706	1410.542119249370	388.018624433265	1045.281805905328	1352.417444048623	539.501414418637	978.776168732715	1426.130284004516	720.257696952713	921.716398107989	1478.531645308845	544.275159783933	1024.631947470114	929.673023779351	693.017395684252	984.796390296101	948.159708558562	421.688639782153	1071.139270208730	731.131631608647	642.441600430384	1002.618240644811	610.175596382907	697.712895773242	1071.136540044009	569.407313959644	604.686628330136	1074.412108664862	473.329309372484	603.346834725794	1076.514435510847	765.826704803572	449.192909630647	1032.822613869497	637.497848219846	368.760629390668	1134.362656452302	575.856918211776	431.998225352615	1150.070938666295	490.858060205628	418.160563415803	1093.237335575761	422.568420370950	400.789541813617	961.394344611028	359.895299070700	350.727991675336	979.534967852090	225.396548586202	387.866071973505	1029.089470957965	385.090501777113	605.784892242607	946.986289218436	288.122024218361	667.063240848924	964.193592510662	195.247053906949	594.467459184107	804.112371421265	43.561906860556	565.521864730267	977.783944138183	96.133553280743	596.107958596394	889.559893433669	37.205831136802	637.436831271779	1097.671565309185	42.148661887714	620.052397704543	811.957625144883	111.048138547070	423.402252935922	871.653741091924	97.941446031696	333.660685476288	971.816734619298	130.201509149262	352.384691392015	1072.527648920018	50.630432042162	299.537771958543	862.279111217109	1052.935488265806	301.214436973559	900.936979110585	796.447296391545	316.085955663478	1090.006306683561	1099.332200384393	851.430946628078	1307.898846058199	957.411325292369	838.976989824914	
108	22.389785714286	781.001768758010	983.472542602380	600.763097321866	918.736441175888	1410.773488573667	389.484538289578	1043.744008370134	1352.403401362767	538.146454468632	981.701989343745	1426.673891062192	720.249287797397	920.598988429425	1478.781289251454	545.530119455453	1024.464278108468	929.472244183669	692.531797039807	980.803108838130	949.246773156136	421.829051899726	1069.151551253565	730.501959720274	641.806287066626	1000.728685973309	609.904371500452	697.794520659520	1068.175193871521	568.907423522883	604.070297131737	1071.006583344662	472.838863101127	602.805672309503	1074.053716935982	768.586175649397	449.753728385782	1032.235795283553	640.196452495080	368.757652779472	1134.001696467011	579.737615493203	432.262099517865	1152.300274735191	496.534236874558	418.197932422029	1099.640694599818	426.824008703363	400.015388491584	973.072534613678	356.136225004306	348.659219581702	999.844331941489	223.013158912744	385.390674424770	1025.304420999624	384.790159399344	605.506400812968	943.279174990966	288.032550233439	667.201257745757	959.879564760141	195.137480816991	594.388806432743	799.405456319549	43.700773074673	565.582649400052	973.143420575571	96.105520812112	596.125440819624	884.868969910685	37.225293690332	637.456362474843	1092.966030584629	41.888377391138	620.030102740825	840.256099120079	98.744925632877	419.699953148978	901.321791184176	88.951962754273	330.401676873485	999.206973841770	126.827624612877	349.644131496928	1104.578308362658	53.213112734698	297.779279591127	844.044752705076	1055.998535607362	306.062169520886	863.324687281848	796.511253556781	323.205220805995	1108.159380883215	1105.893622123682	849.253458463417	1336.927888163452	983.967186429150	828.886921719235	
109	22.413428571429	779.875448557468	984.638451302872	604.121240860724	914.203197611542	1411.501574968311	390.848691935406	1042.400249616228	1352.770881575026	536.669958721655	984.750061492587	1427.642913775908	719.955617028166	919.696205896223	1479.417270710620	546.645558774491	1024.252906584316	929.614325189203	691.931233197461	977.084793951843	950.663895839528	421.817471066833	1066.726536094360	730.071103005128	641.333816655720	998.003430791395	610.015082791252	698.067581645768	1064.455609435225	568.583900542306	603.860133756487	1066.659685946304	472.650340790840	602.755714955168	1070.946283041617	770.944741894484	449.844101081842	1030.201773426418	642.775461111064	368.204852724247	1132.025401612821	583.095629396015	431.747666495203	1152.625349760266	501.961821638459	417.601602923244	1104.441244451821	431.062958481713	398.773462401065	983.983386606078	352.054713811962	345.876922027195	1019.705192424396	220.872576190987	382.546880140656	1020.794319289440	384.818530379171	605.623851231971	938.931093769384	288.122744699025	667.630159229865	955.248544859102	195.237310211140	594.547420383435	794.680200268595	43.864965231106	565.655115047425	968.498883893699	96.092764884503	596.223895797838	880.165606382048	37.236479193326	637.482179177969	1088.241762290158	41.635220927444	620.025808233061	868.784133229405	86.858285431475	415.463636688249	931.434043417886	80.040751130520	326.893493940806	1026.781094038931	123.616703969582	346.746594244306	1136.811587779592	55.980805098476	296.620118594838	826.306588938287	1060.397889307326	310.229540445499	829.063534017062	799.645863772218	329.999124515968	1125.433719228579	1113.347173657329	846.369298248569	1362.970618240836	1012.340336832312	817.477589651769	
110	22.437071428571	778.934094371645	986.190659178473	607.058683705687	910.053890710556	1412.625824663081	392.085922462197	1041.232872631500	1353.430433346473	535.103957313434	987.817419834535	1428.929021684808	719.395579504145	918.982908574033	1480.353096175773	547.597163610472	1023.988979469079	930.030073150275	691.239498837154	973.659381635631	952.308027868894	421.669706638311	1063.948638137139	729.817762878594	641.017026589278	994.574949527227	610.448591849110	698.505998467965	1060.120140296015	568.409915492455	604.022329610802	1061.542316716838	472.717700875672	603.148890001820	1067.344642892673	772.864894874033	449.431601089846	1026.878016878371	645.111634677199	367.124316250555	1128.710917556104	585.878715172692	430.430510639714	1151.236125140556	506.980105036007	416.391369053326	1107.664917369610	435.157475853059	397.130060945667	993.931924044284	347.926919955694	342.549404389136	1038.529732224245	219.206254900215	379.506368773348	1015.706588117841	385.124927544092	606.092275540990	934.046561597131	288.363703456465	668.288861136110	950.362205040285	195.512279880106	594.902188490711	789.939691392961	44.049365551282	565.735260100422	963.850161459222	96.092081909272	596.387142747019	875.449912550294	37.241162643428	637.512450129048	1083.501907974322	41.393850626689	620.037578216531	896.613905507802	76.105194348814	410.993377156133	960.977398672864	71.790061074439	323.388349493222	1053.636120895178	120.864608668965	343.867707490592	1168.075776693753	58.924771438459	296.135312574253	809.268479796340	1065.859749137201	313.784209560834	798.538303232343	805.085538910061	336.410245006025	1141.646558272478	1121.392818578223	842.806467880838	1385.671707011168	1041.842125436596	804.923532566405	
111	22.460714285714	778.161068015065	987.982734602129	609.544498650548	906.294237229426	1414.022714466699	393.162531220561	1040.212147510444	1354.281475122107	533.465924227972	990.800554238736	1430.408994137313	718.585833425635	918.419751436589	1481.487377653550	548.349942644553	1023.674368190812	930.636124248007	690.460418355787	970.526951571431	954.069294083566	421.390527087464	1060.914727156300	729.705830336247	640.807223375754	990.608314179309	611.129354996287	699.050809503129	1055.322844336444	568.348049185679	604.470039526754	1055.839084018975	472.983629552309	603.878473553783	1063.424173704749	774.345735287882	448.514178349614	1022.487320263970	647.117276569533	365.584050045067	1124.375690324822	588.081865297287	428.358514352421	1148.373009381464	511.457042279150	414.648781254051	1109.393800533876	438.981407651758	395.182437781976	1002.729642265100	343.988733463050	338.870019539705	1055.762748899574	218.147345077674	376.437664454037	1010.198372805471	385.644156843405	606.823125379316	928.751824045398	288.718739052428	669.091948536226	945.288324771876	195.918432663913	595.391379974618	785.186906002365	44.245506565643	565.818303909395	959.194687394812	96.099642372901	596.592427102770	870.722173476119	37.241208979370	637.545294017796	1078.749527084104	41.170975239067	620.061360378066	922.822010960853	66.981152836575	406.551445455066	988.956938205380	64.627999243264	320.096296378376	1078.888627990284	118.771566382465	341.164585362869	1197.305423564945	62.016387079064	296.345960649879	793.192865256412	1072.036051707890	316.813807812695	771.961117132083	812.013385388368	342.396245932886	1156.633226439652	1129.705030767080	838.603592727941	1404.790687629354	1071.727297510025	791.428109529087	
